<?xml version="1.0" encoding="UTF-8"?>
<svg width="132px" height="29px" viewBox="0 0 132 29" version="1.1" xmlns="http://www.w3.org/2000/svg" xmlns:xlink="http://www.w3.org/1999/xlink">
    <title>Atom / Logo / Clarins / Red Block</title>
    <g id="Atom-/-Logo-/-Clarins-/-Red-Block" stroke="none" stroke-width="1" fill="none" fill-rule="evenodd">
        <g id="Logo-/-Clarins-/-RedBlock">
            <polygon id="clarins_background" fill="#B40024" points="0.0572619718 28.9825256 131.808507 28.9825256 131.808507 0 0.0572619718 0"></polygon>
            <g id="clarins" transform="translate(0.000000, 5.931244)" fill="#FEFEFE">
                <path d="M19.4438231,1.98586795 C18.0230569,1.45048333 15.4670907,0.623239744 11.7056485,0.623239744 C4.85726535,0.623239744 3.71830986e-05,4.07126538 3.71830986e-05,8.46736795 C3.71830986e-05,13.1047654 4.17755831,16.1646372 11.6814794,16.1646372 C15.4760146,16.1646372 17.8694907,15.262291 19.3545837,14.6547782 C19.3865611,14.6432526 19.4036654,14.6146244 19.4040372,14.5778167 L19.3806118,10.9208423 C19.3813555,10.8769705 19.3512372,10.8468551 19.3081048,10.8420218 L19.0277442,10.8260346 C18.9883301,10.8245474 18.95784,10.858009 18.9504034,10.88515 C18.0565217,14.2379962 15.2049499,15.508791 11.6814794,15.508791 C6.84879211,15.508791 3.49710761,12.8140218 3.49710761,8.39412436 C3.49710761,3.95006026 6.41151887,1.30288077 11.7056485,1.30288077 C15.4901442,1.30288077 17.8390006,2.90643205 18.7522175,5.49449615 C18.7644879,5.53056026 18.7905161,5.55323974 18.8273273,5.55286795 L19.1169837,5.55286795 C19.1567696,5.55249615 19.1876315,5.51568846 19.1924654,5.47962436 L19.4958794,2.07026538 C19.4992259,2.03568846 19.4865837,2.00557308 19.4438231,1.98586795" id="Fill-2"></path>
                <path d="M39.3117194,11.0942846 L39.3117194,11.0939128 L39.1830659,11.0652846 L39.0737476,11.0411179 L39.0257814,11.0303359 C38.9971504,11.024759 38.960711,11.0292205 38.934311,11.0708615 C38.5855335,11.6988231 38.2226265,12.2725026 37.8091504,12.7803744 C37.3841476,13.3027462 36.905973,13.7559641 36.3352124,14.127759 C35.7644518,14.4995538 35.1011054,14.7902974 34.3061307,14.9884641 C33.5104124,15.1858872 32.5830659,15.2903615 31.4843054,15.2903615 L30.8774772,15.2903615 C30.0821307,15.2903615 29.4626603,15.229759 28.9811392,15.1026051 C28.499618,14.9754513 28.1556744,14.7817462 27.9113814,14.5162846 C27.6670885,14.2504513 27.5220744,13.9128615 27.4380406,13.4975667 C27.3543786,13.0822718 27.3316969,12.5892718 27.3316969,12.0118744 L27.3316969,4.79979744 C27.3316969,4.52652821 27.3346715,4.27147692 27.344711,4.03352821 C27.3551223,3.7948359 27.3722265,3.57324615 27.4012293,3.36727179 C27.4298603,3.16055385 27.4703899,2.96945128 27.5261645,2.79173333 C27.5819392,2.61438718 27.6533307,2.45042564 27.7444293,2.29873333 C27.8232575,2.17120769 27.9158434,2.05632308 28.0251617,1.9529641 C28.1348518,1.84923333 28.2605307,1.75851538 28.4062885,1.67932308 C28.5520462,1.60050256 28.7171392,1.53357949 28.9056575,1.47892564 C29.0759561,1.42947692 29.265218,1.39006667 29.4749307,1.36032308 C29.4901758,1.35809231 29.5440913,1.33355385 29.5418603,1.27443846 L29.5418603,0.979233333 C29.5373983,0.891861538 29.4578265,0.893347106 29.4578265,0.893347106 C29.4578265,0.893347106 29.1049589,0.904502564 28.9037983,0.909335897 C28.6688011,0.915284615 28.4100068,0.920489744 28.1218377,0.924951282 C27.8332969,0.929041026 27.5153814,0.932758974 27.1632575,0.934989744 C26.8103899,0.937592308 26.4233138,0.938707692 25.9957082,0.938707692 C25.7398885,0.938707692 25.4762603,0.938707692 25.2025927,0.937964103 C24.9289251,0.937220513 24.645218,0.935733333 24.3484969,0.933130769 C24.0517758,0.93015641 23.7416687,0.926066667 23.4159448,0.919374359 C23.0905927,0.913053846 22.7492518,0.904502564 22.3896913,0.893347106 C22.3889476,0.893347106 22.3060293,0.895207692 22.3041701,0.977002564 L22.3041701,1.10527179 L22.3041701,1.16364359 L22.3041701,1.27555385 C22.3049138,1.27555385 22.3008237,1.34842564 22.3803955,1.36181026 C22.5863899,1.39118205 22.7726772,1.43022051 22.940373,1.47892564 C23.1285194,1.53357949 23.2936124,1.60050256 23.439742,1.67932308 C23.5854997,1.75851538 23.7111786,1.84923333 23.8208687,1.9529641 C23.9298152,2.05632308 24.0224011,2.17120769 24.1016011,2.29873333 C24.1926997,2.45042564 24.2640913,2.61438718 24.3194941,2.79173333 C24.3756406,2.96945128 24.4157983,3.16055385 24.4448011,3.36727179 C24.4734321,3.57324615 24.4909082,3.7948359 24.5013194,4.03352821 C24.5113589,4.27147692 24.5143335,4.52652821 24.5143335,4.79979744 L24.5143335,12.0118744 C24.5143335,12.2851436 24.5113589,12.5405667 24.5013194,12.7781436 C24.4909082,13.0168359 24.4734321,13.2387974 24.4448011,13.4444 C24.4157983,13.6511179 24.3756406,13.8425923 24.3194941,14.0199385 C24.2640913,14.1976564 24.1926997,14.3616179 24.1016011,14.5133103 C24.0224011,14.6404641 23.9298152,14.7568359 23.8208687,14.8590795 C23.7111786,14.9624385 23.5854997,15.0535282 23.439742,15.1327205 C23.2936124,15.211541 23.1285194,15.2780923 22.940373,15.3323744 C22.7711899,15.3818231 22.3751899,15.4506051 22.3751899,15.4506051 C22.3751899,15.4506051 22.3052856,15.4576692 22.3041701,15.5364897 L22.3041701,15.8324385 C22.3049138,15.8852333 22.3465589,15.9194385 22.3889476,15.9194385 C22.7280575,15.9082846 23.0508068,15.8997333 23.3594265,15.8934128 C23.6933307,15.8870923 24.0105025,15.882259 24.3139166,15.8789128 C24.6177025,15.8759385 24.9073589,15.8744513 25.1866039,15.8737077 C25.4662208,15.8733359 25.7346828,15.8733359 25.9957082,15.8733359 L34.131742,15.8733359 C34.6050828,15.8733359 35.0743335,15.8759385 35.5112349,15.8804 C35.9485082,15.8856051 36.3538039,15.8915538 36.6999786,15.8975026 C37.0457814,15.9038231 37.3328349,15.9097718 37.53288,15.9142333 C37.6488913,15.9172077 37.7351561,15.9194385 37.7883279,15.9201821 C37.8463335,15.9183231 37.8619504,15.8714769 37.8667842,15.8621821 L39.0127673,12.3156308 L39.374187,11.1983872 C39.3797645,11.1876051 39.3868293,11.1132462 39.3117194,11.0942846" id="Fill-5"></path>
                <path d="M59.8177893,15.4519808 C58.2073893,15.2497244 57.2015865,13.8543782 56.0994794,11.9396346 L51.5579358,4.19254487 C50.5279639,2.42057051 49.2949724,0.389826923 49.2949724,0.389826923 C49.2949724,0.389826923 49.2934851,0.386480769 49.2890231,0.382019231 C49.273778,0.358967949 49.258533,0.35599359 49.2154006,0.35599359 C49.2023865,0.35599359 49.1209555,0.35525 49.0781949,0.35599359 C49.0350625,0.356737179 49.0246513,0.370121795 49.0086625,0.394660256 C48.5308597,1.18621154 48.03744,2.09525 46.5798625,4.48440385 L42.5480992,11.0164679 C40.6993555,14.074109 39.5444485,15.234109 38.7676935,15.4460321 C38.7238175,15.4646218 38.7108034,15.5044038 38.7108034,15.5244808 L38.7108034,15.8364167 C38.7141499,15.8814038 38.749102,15.9174679 38.7970682,15.9182115 C39.3354794,15.8951603 39.9664766,15.8728526 41.1879414,15.8728526 C42.3610682,15.8728526 44.0956597,15.9193269 44.0956597,15.9193269 C44.0956597,15.9193269 44.1733724,15.9144936 44.1756034,15.8312115 C44.1756034,15.7267372 44.1759752,15.5664936 44.1756034,15.5267115 C44.1744879,15.491391 44.1532935,15.4571859 44.1097893,15.4452885 C42.8239977,15.1474808 42.3785442,14.4994423 42.3785442,13.6878141 C42.3785442,12.8865962 42.8641555,11.9396346 43.5196935,10.7736859 L44.0190625,9.8888141 C44.0387696,9.85683974 44.0584766,9.82709615 44.1164823,9.82672436 L51.5850794,9.82672436 C51.6263527,9.82858333 51.6635358,9.84308333 51.6906794,9.88583974 L52.6749161,11.5507372 C53.3311977,12.6679808 53.8413499,13.4691987 53.8413499,14.1975449 C53.8413499,14.8656603 53.3245048,15.2526987 52.0152879,15.44975 C51.946871,15.4653654 51.9472428,15.5319167 51.9472428,15.5319167 L51.9472428,15.8319551 C51.9494738,15.8962756 51.9944654,15.9237885 52.0297893,15.9220175 C53.4059358,15.9196987 54.6679301,15.8728526 55.9053837,15.8728526 C57.1227583,15.8728526 59.8088654,15.9220175 59.8088654,15.9220175 C59.8088654,15.9220175 59.884347,15.9185833 59.8881161,15.8353013 L59.8881161,15.5415833 C59.8881161,15.5415833 59.8925273,15.4679679 59.8177893,15.4519808 M51.1202907,9.14671154 L44.5946569,9.14671154 C44.5199189,9.14336538 44.4935189,9.06826282 44.524009,9.01583974 L45.2929555,7.7866859 C46.7761893,5.32875 47.3536428,4.39889103 47.8035583,3.66459615 C47.8407414,3.60585256 47.9080428,3.60436538 47.9496879,3.66013462 C48.3534963,4.33419872 49.100133,5.52171154 50.4413273,7.7866859 L51.1872203,9.01583974 C51.2158513,9.05636538 51.1983752,9.14336538 51.1202907,9.14671154" id="Fill-7"></path>
                <path d="M129.426446,8.3942359 C128.041004,7.73838974 126.244317,7.39856923 124.326041,7.05837692 L122.820125,6.79142821 C119.591145,6.25678718 118.205703,5.55297949 118.205703,3.85313333 C118.205703,2.29903077 119.979336,1.25465897 123.452238,1.25465897 C127.178356,1.25465897 128.905883,2.96788974 129.527956,5.1458641 C129.542457,5.18713333 129.567742,5.21241538 129.620542,5.21241538 L129.934739,5.21241538 C129.9775,5.21278718 130.010593,5.17672308 130.01617,5.13656923 L130.322187,1.73947949 C130.324046,1.72572308 130.319584,1.71419744 130.300993,1.70862051 C128.365241,1.10445385 126.354379,0.623351282 123.475663,0.623351282 C118.959404,0.623351282 115.486503,2.03133846 115.486503,4.87296667 C115.486503,7.76255641 118.230987,8.61247949 121.946694,9.29212051 L123.378615,9.53527436 C126.706503,10.1424154 129.256148,10.5554795 129.256148,12.6921846 C129.256148,14.6593513 126.560373,15.508159 123.111641,15.508159 C119.854401,15.508159 116.835877,14.2135692 115.845319,10.8852615 C115.833421,10.8488256 115.807393,10.8231718 115.761657,10.8228 L115.467167,10.8228 C115.42701,10.824659 115.389083,10.849941 115.382018,10.9042231 L115.052204,14.6519154 C115.049229,14.6701333 115.05741,14.6876077 115.080091,14.6965308 C116.126052,15.1408256 119.023731,16.1647487 123.111641,16.1647487 C128.503562,16.1647487 131.879787,14.7314795 131.879787,11.647441 C131.879787,10.1178769 130.907449,9.09804359 129.426446,8.3942359" id="Fill-9"></path>
                <path d="M113.398857,0.892266986 C112.404953,0.91569359 111.348581,0.938744872 110.452469,0.938744872 C109.460424,0.938744872 108.537167,0.91569359 107.368131,0.892266986 C107.323139,0.891898718 107.271455,0.920898718 107.271455,0.991167949 L107.271455,1.29492436 C107.272198,1.33136026 107.290418,1.37486026 107.348052,1.38489872 C108.655781,1.53845 109.294587,1.97084744 109.675342,2.5898859 C110.185494,3.43980897 110.210779,4.70242436 110.210779,6.50005256 L110.210779,8.24823205 C110.210779,10.1001423 110.226767,11.3932449 110.231973,11.8144885 C110.232717,11.8877321 110.166531,11.9085526 110.118565,11.8713731 C109.859026,11.6181808 109.021291,10.8221679 107.149866,9.24352692 L101.681348,4.48418077 C99.4923786,2.62483462 97.9656406,1.26703974 97.678587,0.942091026 C97.6585082,0.921642308 97.6328518,0.916065385 97.6172349,0.91569359 C96.8899335,0.938744872 95.8462039,0.938744872 95.2263617,0.938744872 C94.3194659,0.938744872 94.022373,0.938744872 92.5867335,0.893014103 C92.5458321,0.893757692 92.5067899,0.928334615 92.506418,0.976296154 L92.506418,1.30979615 C92.5116237,1.37820641 92.5707448,1.38936026 92.5707448,1.38936026 C93.3917476,1.55406538 94.2551392,1.75743718 95.0508575,2.5608859 C95.0817194,2.59286026 95.0802321,2.63264231 95.0798603,2.6333859 L95.0798603,10.2641038 C95.0798603,12.0609885 95.0560631,13.3232321 94.5462828,14.1731551 C94.1647842,14.7918218 93.5047842,15.2007962 92.427218,15.4223859 C92.3829701,15.4327962 92.3599166,15.47295 92.360284,15.5026936 L92.360284,15.8350782 C92.3606603,15.8796936 92.3963561,15.9220782 92.4487842,15.9194756 C93.4266997,15.8960526 94.2090321,15.8730013 95.104773,15.8730013 C96.1020237,15.8730013 97.2863054,15.8964244 98.4739335,15.9202192 C98.5018208,15.9194756 98.5516462,15.891591 98.5527617,15.8332192 L98.5527617,15.5097577 C98.5516462,15.4640269 98.5285927,15.4320526 98.4869476,15.4223859 C97.4071504,15.2007962 96.6999279,14.7918218 96.3180575,14.1731551 C95.8079054,13.3232321 95.78448,12.0609885 95.78448,10.2641038 L95.78448,8.41814231 C95.78448,5.81632179 95.7480406,3.76810385 95.738373,3.23532179 C95.738373,3.16839872 95.813111,3.14869359 95.8506659,3.18327051 C95.8685138,3.19962949 97.947049,5.07830897 100.442779,7.20386026 L105.548018,11.6237577 C106.956886,12.8372962 110.743984,16.1890269 110.743984,16.1890269 C110.743984,16.1890269 110.722046,16.1685782 110.804593,16.2421936 C110.849212,16.2749115 110.938824,16.2526038 110.938452,16.167091 C110.938452,16.1280526 110.913911,12.1334885 110.913911,10.5065141 L110.913911,6.50005256 C110.913911,4.70242436 110.938824,3.43980897 111.449348,2.5898859 C111.828987,1.97159103 112.349922,1.60909103 113.421167,1.39010385 C113.470621,1.37560385 113.48661,1.34102692 113.488841,1.30161667 L113.488841,0.983732051 C113.487353,0.92870641 113.451657,0.892642308 113.398857,0.892266986" id="Fill-12"></path>
                <path d="M80.350222,15.4694179 C78.7480023,15.0675077 78.2200023,13.9614179 77.6444079,12.6196103 L77.499022,12.2548795 C76.5054896,9.79322564 75.6789093,8.63434103 72.8139515,8.4841359 C72.7180192,8.47930256 72.7235966,8.35809744 72.8027966,8.34880256 C75.6841149,8.18298205 78.1296473,6.99137949 78.1296473,4.41149487 C78.1296473,1.30291795 74.5121037,0.914764103 70.4561713,0.914764103 C69.6794163,0.914764103 68.8770051,0.938558974 68.0760811,0.938558974 L64.6515177,0.938558974 C63.630098,0.938558974 61.9579741,0.938558974 60.7030445,0.893883595 C60.6569375,0.892084615 60.6197544,0.933725641 60.6197544,0.977225641 L60.6197544,1.27540513 C60.6212417,1.32336667 60.6465262,1.35199487 60.6907741,1.36128974 C61.5943234,1.48918718 62.1093093,1.80186667 62.4171854,2.29895641 C62.7815797,2.90572564 62.8302896,3.70731538 62.8302896,4.80002051 L62.8302896,12.0117256 C62.8302896,13.1048026 62.7815797,13.9063923 62.4171854,14.5135333 C62.1093093,15.0102513 61.5954389,15.322559 60.6926332,15.4500846 C60.6569375,15.4571487 60.6216135,15.4861487 60.6197544,15.5315077 L60.6197544,15.8293154 C60.6197544,15.8962385 60.671067,15.9200333 60.7052755,15.9192897 C62.1461206,15.8731872 63.2880135,15.8731872 64.3116642,15.8731872 C65.405591,15.8731872 67.7745262,15.9192897 67.7745262,15.9192897 C67.7745262,15.9192897 67.854098,15.9163154 67.8574445,15.8315462 L67.8574445,15.5359692 C67.8574445,15.4984179 67.8332755,15.4601231 67.7897713,15.4508282 C66.8843628,15.3233026 66.3686332,15.0109949 66.0607572,14.5135333 C65.6956192,13.9063923 65.6472811,13.1048026 65.6472811,12.0117256 L65.6472811,8.76149487 C65.6457938,8.68825128 65.6814896,8.66222564 65.7339177,8.66111026 C66.2950107,8.65850769 68.0396417,8.63657179 68.6591121,8.63657179 C72.3261093,8.63657179 73.6375572,10.1910462 74.487191,12.4009949 C75.1189318,14.0038026 75.9205994,15.8973538 76.4790896,15.8973538 L77.5960699,15.8973538 C78.755067,15.8973538 79.3611515,15.8973538 80.3338614,15.9200333 C80.3799685,15.9178026 80.4108304,15.8809949 80.4126896,15.8334051 L80.4126896,15.5493538 C80.4108304,15.5118026 80.3874051,15.4787128 80.350222,15.4694179 L80.350222,15.4694179 Z M65.7402389,7.98109744 C65.6759121,7.97923846 65.6487685,7.96325128 65.6472811,7.91603333 L65.6472811,1.65649487 C65.647653,1.59514872 65.6796304,1.57023846 65.7350332,1.5676359 C66.6006558,1.54458462 69.3116755,1.52153333 69.8976811,1.52153333 C72.423529,1.52153333 74.9490051,1.78885385 74.9490051,4.41149487 C74.9490051,7.88405897 71.8650389,7.98109744 69.1205544,7.98109744 L65.7402389,7.98109744 Z" id="Fill-14"></path>
                <path d="M89.5156327,15.8325128 L89.5156327,15.5410256 C89.5156327,15.5406538 89.5152608,15.5406538 89.5152608,15.5406538 C89.5145172,15.4759615 89.4751031,15.4581154 89.442382,15.4503077 C88.5414355,15.3224103 88.0260777,15.0097308 87.7193172,14.5137564 C87.3549228,13.9058718 87.3069566,13.1046538 87.3069566,12.0119487 L87.3069566,4.80024359 C87.3069566,3.70716667 87.3549228,2.90594872 87.7193172,2.29880769 C88.0275651,1.79985897 88.5458975,1.48755128 89.4553961,1.35965385 C89.4873735,1.35296154 89.5156327,1.32284615 89.5156327,1.27191026 L89.5156327,0.976333333 C89.5137735,0.926884615 89.4769623,0.890820513 89.4327144,0.893290718 C88.113458,0.938782051 87.0648946,0.938782051 85.9709679,0.938782051 C84.9469454,0.938782051 83.8065397,0.938782051 82.3656946,0.893290718 C82.305458,0.892307692 82.2801735,0.937294872 82.2783144,0.979307692 L82.2783144,1.27451282 C82.281289,1.32210256 82.3091763,1.35296154 82.3515651,1.36114103 C83.2532552,1.48978205 83.768613,1.80208974 84.0761172,2.29880769 C84.4408834,2.90594872 84.4884777,3.70716667 84.4884777,4.80024359 L84.4884777,12.0119487 C84.4884777,13.1046538 84.4408834,13.9058718 84.0761172,14.5137564 C83.7604327,15.0231154 83.2261115,15.339141 82.2783144,15.4603462 L82.2783144,15.9217436 C83.7604327,15.8730385 84.925751,15.8730385 85.9709679,15.8730385 C87.0652665,15.8730385 88.113458,15.8730385 89.4345735,15.9187692 C89.486258,15.9195128 89.5152608,15.8700641 89.5156327,15.8325128" id="Fill-16"></path>
            </g>
        </g>
    </g>
</svg>